<svg width="512" height="512" viewBox="0 0 512 512" fill="none" xmlns="http://www.w3.org/2000/svg">
<g clip-path="url(#clip0_1_2)">
<path d="M362.667 298.667C362.667 304.325 360.419 309.751 356.418 313.752C352.417 317.752 346.991 320 341.333 320H170.667C165.009 320 159.582 317.752 155.582 313.752C151.581 309.751 149.333 304.325 149.333 298.667C149.333 293.009 151.581 287.583 155.582 283.582C159.582 279.581 165.009 277.333 170.667 277.333H341.333C346.991 277.333 352.417 279.581 356.418 283.582C360.419 287.583 362.667 293.009 362.667 298.667ZM277.333 362.667H170.667C165.009 362.667 159.582 364.914 155.582 368.915C151.581 372.916 149.333 378.342 149.333 384C149.333 389.658 151.581 395.084 155.582 399.085C159.582 403.086 165.009 405.333 170.667 405.333H277.333C282.991 405.333 288.417 403.086 292.418 399.085C296.419 395.084 298.667 389.658 298.667 384C298.667 378.342 296.419 372.916 292.418 368.915C288.417 364.914 282.991 362.667 277.333 362.667ZM469.333 223.68V405.333C469.299 433.613 458.051 460.724 438.054 480.721C418.057 500.717 390.946 511.966 362.667 512H149.333C121.054 511.966 93.9425 500.717 73.946 480.721C53.9494 460.724 42.7005 433.613 42.6666 405.333V106.667C42.7005 78.3873 53.9494 51.2759 73.946 31.2794C93.9425 11.2828 121.054 0.0338777 149.333 3.42383e-06H245.653C265.272 -0.050491 284.706 3.78854 302.831 11.2951C320.957 18.8017 337.415 29.8269 351.253 43.7333L425.579 118.101C439.493 131.93 450.525 148.383 458.036 166.506C465.546 184.629 469.386 204.062 469.333 223.68ZM321.088 73.8987C314.374 67.3954 306.836 61.801 298.667 57.2587V149.333C298.667 154.991 300.914 160.418 304.915 164.418C308.916 168.419 314.342 170.667 320 170.667H412.075C407.53 162.5 401.928 154.968 395.413 148.267L321.088 73.8987ZM426.667 223.68C426.667 220.16 425.984 216.789 425.664 213.333H320C303.026 213.333 286.747 206.591 274.745 194.588C262.743 182.586 256 166.307 256 149.333V43.6693C252.544 43.3493 249.152 42.6667 245.653 42.6667H149.333C132.359 42.6667 116.081 49.4095 104.078 61.4118C92.0761 73.4142 85.3333 89.6928 85.3333 106.667V405.333C85.3333 422.307 92.0761 438.586 104.078 450.588C116.081 462.591 132.359 469.333 149.333 469.333H362.667C379.64 469.333 395.919 462.591 407.921 450.588C419.924 438.586 426.667 422.307 426.667 405.333V223.68Z" fill="#BEBEBE"/>
</g>
<defs>
<clipPath id="clip0_1_2">
<rect width="512" height="512" fill="white"/>
</clipPath>
</defs>
</svg>
