<svg width="512" height="512" viewBox="0 0 512 512" fill="none" xmlns="http://www.w3.org/2000/svg">
<path d="M28.3093 264.533L104.256 320L75.4133 409.323C70.7522 423.176 70.6932 438.165 75.245 452.055C79.7968 465.945 88.7156 477.992 100.672 486.4C112.423 495.078 126.664 499.727 141.273 499.654C155.881 499.581 170.074 494.79 181.739 485.995L256 431.339L330.283 485.931C342.013 494.559 356.177 499.246 370.739 499.316C385.3 499.387 399.509 494.839 411.323 486.326C423.137 477.812 431.947 465.772 436.486 451.935C441.026 438.099 441.061 423.18 436.587 409.323L407.744 320L483.691 264.533C495.406 255.968 504.114 243.92 508.573 230.11C513.031 216.299 513.011 201.433 508.516 187.635C504.02 173.837 495.28 161.812 483.542 153.278C471.804 144.744 457.669 140.138 443.157 140.117H349.867L321.557 51.8827C317.106 37.9938 308.358 25.8777 296.575 17.2814C284.793 8.6852 270.585 4.0531 256 4.0531C241.415 4.0531 227.207 8.6852 215.425 17.2814C203.642 25.8777 194.894 37.9938 190.443 51.8827L162.133 140.117H68.928C54.4158 140.138 40.2814 144.744 28.5435 153.278C16.8057 161.812 8.06483 173.837 3.56949 187.635C-0.925858 201.433 -0.945755 216.299 3.51264 230.11C7.97103 243.92 16.6797 255.968 28.3946 264.533H28.3093Z" fill="#BEBEBE"/>
</svg>
