<svg width="512" height="512" viewBox="0 0 512 512" fill="none" xmlns="http://www.w3.org/2000/svg">
<g clip-path="url(#clip0_5_2)">
<path d="M508.501 187.605C504.138 173.715 495.419 161.598 483.636 153.046C471.853 144.494 457.631 139.961 443.072 140.117H349.867L321.557 51.8827C317.106 37.9938 308.358 25.8777 296.575 17.2814C284.793 8.6852 270.585 4.0531 256 4.0531C241.415 4.0531 227.207 8.6852 215.425 17.2814C203.642 25.8777 194.894 37.9938 190.443 51.8827L162.133 140.117H68.928C54.4159 140.138 40.2814 144.744 28.5436 153.278C16.8057 161.812 8.06486 173.837 3.56952 187.635C-0.925827 201.433 -0.945724 216.299 3.51267 230.11C7.97106 243.92 16.6797 255.968 28.3947 264.533L104.256 320L75.4133 409.323C70.7522 423.176 70.6932 438.165 75.245 452.055C79.7968 465.945 88.7157 477.992 100.672 486.4C112.424 495.078 126.664 499.727 141.273 499.654C155.881 499.581 170.075 494.79 181.739 485.995L256 431.339L330.283 485.931C342.013 494.559 356.177 499.246 370.739 499.316C385.3 499.387 399.509 494.839 411.323 486.326C423.137 477.812 431.947 465.772 436.486 451.935C441.026 438.099 441.061 423.18 436.587 409.323L407.744 320L483.691 264.533C495.54 256.076 504.35 244.028 508.819 230.173C513.287 216.318 513.176 201.392 508.501 187.605ZM458.517 230.08L370.112 294.699C366.481 297.348 363.779 301.076 362.392 305.351C361.005 309.627 361.004 314.231 362.389 318.507L395.989 422.4C397.69 427.669 397.675 433.342 395.948 438.603C394.221 443.864 390.87 448.441 386.377 451.677C381.884 454.914 376.481 456.642 370.944 456.614C365.407 456.585 360.022 454.802 355.563 451.52L268.629 387.52C264.968 384.83 260.543 383.38 256 383.38C251.457 383.38 247.032 384.83 243.371 387.52L156.437 451.52C151.98 454.846 146.58 456.666 141.019 456.717C135.458 456.767 130.025 455.045 125.509 451.801C120.992 448.556 117.627 443.957 115.9 438.671C114.173 433.384 114.174 427.685 115.904 422.4L149.611 318.507C150.996 314.231 150.995 309.627 149.608 305.351C148.221 301.076 145.519 297.348 141.888 294.699L53.4827 230.08C49.0305 226.82 45.7223 222.237 44.0307 216.984C42.3392 211.732 42.3507 206.08 44.0637 200.834C45.7766 195.589 49.1034 191.019 53.5689 187.777C58.0343 184.536 63.41 182.788 68.928 182.784H177.728C182.245 182.784 186.645 181.35 190.294 178.69C193.944 176.029 196.655 172.279 198.037 167.979L231.104 64.9174C232.801 59.6435 236.128 55.0441 240.606 51.7814C245.084 48.5186 250.481 46.7607 256.021 46.7607C261.562 46.7607 266.959 48.5186 271.437 51.7814C275.914 55.0441 279.241 59.6435 280.939 64.9174L314.005 167.979C315.387 172.279 318.099 176.029 321.748 178.69C325.398 181.35 329.798 182.784 334.315 182.784H443.115C448.633 182.788 454.008 184.536 458.474 187.777C462.939 191.019 466.266 195.589 467.979 200.834C469.692 206.08 469.704 211.732 468.012 216.984C466.32 222.237 463.012 226.82 458.56 230.08H458.517Z" fill="#BEBEBE"/>
</g>
<defs>
<clipPath id="clip0_5_2">
<rect width="512" height="512" fill="white"/>
</clipPath>
</defs>
</svg>
